<?xml version="1.0" encoding="UTF-8"?>
<svg width="3148px" height="2321px" viewBox="0 0 3148 2321" version="1.1" xmlns="http://www.w3.org/2000/svg" xmlns:xlink="http://www.w3.org/1999/xlink">
    <!-- Generator: Sketch 50.2 (55047) - http://www.bohemiancoding.com/sketch -->
    <title>Artboard</title>
    <desc>Created with Sketch.</desc>
    <defs></defs>
    <g id="Artboard" stroke="none" stroke-width="1" fill="none" fill-rule="evenodd">
        <rect id="Rectangle" fill="#000000" x="0" y="0" width="3148" height="2321"></rect>
        <g id="TCT_trail" transform="translate(122.000000, 168.000000)">
            <g id="TCT_outline">
                <path d="M1341.81,1664.43 C1342.38,1661.29 1343.17,1659 1343.12,1656.73 C1343.12,1654.64 1342.82,1651.73 1341.48,1650.61 C1335.80196,1645.50663 1329.74085,1640.8463 1323.35,1636.67 C1319.89,1634.51 1315.35,1633.8 1311.14,1633.22 C1304.52,1632.29 1300.71,1629.93 1299.29,1623.35 C1298.29,1618.58 1296.62,1614.49 1292.88,1611.35 C1289.57,1608.57 1289.75,1605.08 1290.51,1601.35 C1292.05,1593.78 1290.32,1586.74 1286.34,1580.35 C1284.83,1577.92 1282.58,1575.92 1280.59,1573.79 C1276.79,1569.69 1272.41,1566 1269.28,1561.44 C1267.36,1558.65 1265.57,1557.06 1262.36,1556.79 C1260.7,1556.64 1259.07,1556.28 1257.42,1556.1 C1245.55,1554.85 1245.13,1554.39 1244.92,1542.9 C1244.93039,1540.22521 1244.76336,1537.55268 1244.42,1534.9 C1243.62,1529.73 1241.66,1525.82 1235.9,1523.9 C1232.08,1522.62 1229.05,1519.06 1225.61,1516.6 C1221.04,1513.34 1216.52,1510 1211.79,1506.99 C1207.50831,1504.37922 1204.38281,1500.23453 1203.05,1495.4 C1199.24,1482.7 1195.41,1470.15 1185.58,1460.09 C1182.34,1456.77 1181.84,1450.31 1181.09,1445.15 C1180.52097,1440.87035 1178.61339,1436.88019 1175.64,1433.75 C1165.17,1422.21 1160.36,1408.24 1159.18,1392.95 C1158.86,1388.81 1158.27,1385.19 1153.03,1382.09 L1153.89,1393.49 C1149.07,1393.15 1147.27,1390.6 1146.99,1386.01 C1146.61617,1380.69794 1145.91147,1375.41435 1144.88,1370.19 C1144.40224,1367.98853 1143.40828,1365.93206 1141.98,1364.19 C1137.81,1359.02 1137.47,1354.86 1140.62,1349.08 C1142.83,1345.08 1144.53,1340.73 1146.44,1336.54 C1146.98,1335.36 1147.11,1333.54 1147.99,1333.06 C1153.69,1330.21 1154.35,1325.32 1154.65,1319.68 C1154.79,1317.03 1156.73,1314.19 1158.53,1311.99 C1160.59147,1309.35987 1163.12046,1307.1326 1165.99,1305.42 C1172.9,1301.57 1174.82,1296.12 1172.46,1288.36 C1171.32,1287.76 1169.83,1287.08 1168.46,1286.23 C1163.94,1283.48 1162.8,1280.66 1165.75,1276.67 C1173.84,1265.67 1182.16,1254.93 1190.75,1244.4 C1192.75,1241.98 1194.06,1240.04 1194.41,1236.79 C1196.22,1220.06 1188.71,1207.19 1178.06,1195.5 C1175.6,1192.8 1172.54,1190.5 1170.58,1187.5 C1166.44,1181.16 1168.69,1175.74 1176,1173.84 C1188.56,1170.58 1199.11,1162.67 1211.42,1158.64 C1214.96,1157.48 1216.97,1151.64 1220.01,1147.52 C1215.45,1140.42 1211.39,1133.63 1206.84,1127.19 C1202.84,1121.5 1202.97,1115.92 1204.29,1109.27 C1207.07,1095.27 1215.87,1090.35 1228.91,1089.73 C1237.14,1089.34 1245.33,1088.32 1253.53,1087.46 C1260.83,1086.7 1271.33,1077.19 1272.71,1070.28 C1273.78,1064.93 1268.71,1055.92 1263.12,1053.14 C1260.3,1051.73 1257.61,1050.08 1253.43,1047.74 L1266.72,1037.01 L1258.63,1031.25 C1254.87,1033.9 1251.75,1036.36 1248.39,1038.42 C1240.12,1043.42 1236.74,1042.31 1230.54,1035.18 C1224.91,1028.69 1222,1021.76 1220.61,1013.18 C1219.36,1005.47 1215.77,997.92 1212.12,990.87 C1208.72799,984.395409 1206.55842,977.351067 1205.72,970.09 C1204.58,960.55 1202.62,951.09 1201.94,941.52 C1201.54,936.01 1202.94,930.37 1203.6,924.25 C1201.31,923.11 1199.01,921.87 1196.6,920.79 C1188.01,916.88 1181.46,910.92 1178.84,901.67 C1175.49,889.86 1170.45,879.24 1158.84,871.81 C1165.58,862.66 1164.94,853.28 1162.97,843.61 C1162.51,841.35 1163.24,837.61 1164.84,836.36 C1173.96,829.41 1172.32,819.36 1173.66,809.24 L1154.05,792.76 C1163.05,783.51 1162.25,770.55 1165.92,759.02 C1168,752.47 1167.08,746.66 1162.17,741.57 C1154.66,733.81 1152.95,723.31 1149.34,713.72 C1148.80368,712.483463 1148.65042,711.114527 1148.9,709.79 C1152.11,699.15 1146.05,691.79 1140.51,683.89 C1137.12,679.06 1134.63,673.52 1132.29,668.06 C1130.03,662.79 1127.02,660.06 1120.94,658.53 C1112.04,656.3 1103.79,651.53 1095.16,648.08 C1091.7866,646.843587 1088.30469,645.926238 1084.76,645.34 C1080.22,644.47 1075.6,644.04 1071.05,643.25 C1065.38,642.25 1060.05,642.25 1054.5,644.72 C1050.5,646.5 1045.59,646.72 1041.05,647.06 C1036.25003,647.61435 1031.61675,645.103822 1029.46,640.78 C1026.72,635.78 1022.2,634.17 1016.73,632.49 C1004.73,628.8 993.15,623.58 981.58,618.57 C979.03,617.47 977.07,614.78 975.09,612.57 C972.21,609.39 969.09,606.27 966.9,602.65 C963.98,597.92 961.05,592.94 959.5,587.65 C957.95,582.36 959.6,578.17 964.23,573.74 C971.18,567.09 979.79,561.34 982.63,551.03 C983.38,548.29 985.78,546.03 987.45,543.52 C989.85,539.94 993.16,536.67 994.52,532.73 C998.36,521.65 1002.88,511.05 1009.97,501.61 C1012.19,498.67 1012.16,495.28 1009.32,492.56 C1006.48,489.84 1001.73,490.26 998.59,493.31 C996.92,494.92 994.59,496.71 994.29,498.68 C993.41,504.58 989.06,506.87 984.65,508.94 C976.17,512.94 969.81,518.7 965.74,527.29 C961.95,535.29 956.31,540.67 946.25,539.39 C942.82,538.95 939.15,540.47 935.77,541.07 C935.15,545.93 934.61,550.14 934.16,553.64 C931.92,554.31 929.41,554.28 928.54,555.45 C922.61,563.45 917.84,572.5 911.13,579.75 C902.2,589.4 904.03,599.9 906.58,610.52 C907.435479,613.445783 907.552297,616.538012 906.92,619.52 C905.92,624.15 906.7,629.32 907.5,634.13 C908.88,642.42 906.5,645.13 898.64,642.22 C893.42,640.3 888.93,641.56 884.05,642.57 C873.68,644.73 871.52,643.25 870.32,632.88 C869.56,626.3 869.47,619.64 868.98,613.01 C868.807453,609.698406 868.443512,606.399564 867.89,603.13 C867.28,599.92 866.2,596.8 865.26,593.41 C863.77,593.04 862.15,592.26 860.56,592.32 C851.45,592.65 846.29,586.58 840.64,580.83 C832.76,572.83 824.94,564.55 816.15,557.58 C809.5843,552.213279 800.984821,550.017667 792.65,551.58 C786.91,552.58 780.87,552.21 774.98,552 C769.73,551.81 764.51,551 759.55,550.49 C754.18,564 746.7,566.97 731.55,561.86 C729.178921,563.956991 726.916,566.173185 724.77,568.5 C722.878541,570.935969 721.116121,573.469448 719.49,576.09 C704.86,575.56 697.79,563.8 687.4,558.09 C688.11,545.15 688.79,532.69 689.4,521.92 C683.57,518.21 679.4,515.37 675.09,512.92 C672.85,511.65 670.19,510.2 667.8,510.33 C659.2,510.76 650.59,511.51 642.08,512.79 C636.78,513.59 632.2,515.86 629.54,521.47 C627.61,525.54 620.84,526.58 615.27,524.01 C611.692516,522.243776 608.369294,520.003628 605.39,517.35 C599.07,511.99 592.39,510.68 585.25,515.2 C579.51,518.8 574.69,517.89 570,513.28 C567.68311,510.882156 565.040576,508.821989 562.15,507.16 C557.97,504.92 553.45,503.97 549.15,507.34 C542.11,513 535,518.41 528,524 C524.87,526.49 522,529.26 517.9,532.85 C504.82,535.53 490.17,531.29 475.39,531.26 C473.382858,531.175546 471.42071,530.638861 469.65,529.69 C460.449455,524.991272 450.530305,521.858376 440.3,520.42 C438.49,520.15 435.95,519.14 435.3,517.74 C432.01,510.94 428.3,504.11 426.6,496.85 C425.17,490.72 422.27,487.1 416.71,485.85 C410.56,484.52 404.17,484.35 397.97,483.21 C394.89,482.65 391.02,481.91 389.22,479.8 C384.32,474.05 377.59,472.19 371.09,469.98 C368.7,469.17 365.33,470.21 362.74,471.24 C356.95,473.55 351.91,473.95 347.53,468.48 C345.9,466.48 343.39,465.14 341.44,463.33 C336.22,458.48 333.8,452.64 334.92,445.33 C335.58,441.09 335.56,436.74 336.22,432.5 C336.52182,430.612288 337.362121,428.851822 338.64,427.43 C341.87,424.08 345.42,421.05 348.87,417.93 C351.79,415.3 354.75,412.72 358.11,409.75 L349.43,398.08 L355.26,388.28 C352.71,384.67 349.91,382.19 349.04,379.15 C347.37,373.28 344.17,371.09 338.21,371.47 C333.879459,371.788788 329.525659,371.512891 325.27,370.65 C318.91,369.26 313.47,370.04 308.65,374.65 C307.78,375.48 306.28,375.65 304.4,376.38 C303.09,374.02 302.03,371.68 300.6,369.59 C295.18,361.67 289.84,353.67 283.97,346.09 C282.69,344.44 279.32,343.88 276.87,343.8 C272.25,343.64 269.44,341.54 267.57,337.09 L272.32,326.82 L249.32,314.06 C249.04,309.3 248.79,305.06 248.5,300.12 C239.5,298.88 235.44,293.19 235.57,284.45 C235.784687,280.05312 233.726668,275.854004 230.12,273.33 C224.38,269 220.84,263.49 218.54,256.44 C216.54,250.31 212.54,244.67 208.61,239.38 C203.7,232.73 197.72,227.98 188.28,230.81 C184.69,231.88 180.52,230.98 176.6,230.98 C174.6,222.98 172.6,216.05 171.23,208.98 C170.3,203.98 168.29,199.98 163.53,198.2 C156.35,195.46 154.53,190.2 155.02,183.14 C155.299482,180.149323 154.959055,177.133144 154.02,174.28 C151.66,167.8 149.26,161.58 141.5,158.73 C136.96,157.07 131.25,155.5 131.05,147.61 C130.94,143.36 124.61,140.61 119.77,141.4 C107.01,143.4 98.38,135.29 89,129.4 C80.72,124.2 76.71,115.4 73.83,106.47 C72.3827971,101.420751 71.9879745,96.1280857 72.67,90.92 C73.42,84.16 72.52,78.7 67.43,73.66 C63.19,69.51 60,64.3 55.86,58.86 L46.07,57 L33.89,32.85 C41.36,30.75 47.34,31.12 53.8,34.14 C62.5283738,38.1652951 71.5553601,41.5086233 80.8,44.14 C83.8,45.01 88.03,43.59 91,41.96 C95.9571344,39.0612695 101.99157,38.6720706 107.28,40.91 C122.68,47.06 138.76,51.76 152.21,62.16 C154.893464,64.1154727 158.129636,65.1661779 161.45,65.16 C174.82,64.88 187.78,67.69 200.83,69.79 C203.57,70.24 206.27,72.01 208.59,73.72 C219.65,81.83 230.94,84.83 243.54,76.86 C245.87,75.39 249.36,75.1 252.24,75.31 C259.24,75.83 265.35,73.72 271.15,70.12 C280.95,64.02 290.55,64.27 300.15,70.74 C302.995797,72.4647033 306.05512,73.809461 309.25,74.74 C310.67,75.22 312.94,75.38 313.95,74.58 C322.84,67.52 332.65,70.26 342.09,72.16 C346.33,73.01 349.43,73.26 353.09,70.56 C358.43,66.63 364.32,63.45 370.65,59.56 C377.32,60.79 382,66.05 386.82,71 C390.02,74.32 392.38,77.89 397.98,78.31 C401.55,78.58 404.89,81.94 408.23,83.86 C429.23,74.73 450.52,75.22 471.98,80.23 C476.42,81.23 480.49,82.23 484.18,78.94 C495.61,68.62 508.06,70.83 520.38,76.43 C539.38,85.08 557.79,82.65 576.17,74.8 C577.39,74.28 578.99,73.9 579.63,72.93 C581.38,70.31 582.09,66.37 586.42,67.29 C591.16,68.29 595.81,69.78 600.42,71.29 C601.58,71.66 602.49,72.8 603.91,73.89 C606.61,72.57 609.24,71.22 611.91,69.97 C620.91,65.77 629.6,61.05 639.91,59.9 C649.06,58.9 651.34,55.01 652.91,45.52 C653.682734,42.119536 655.670549,39.1182547 658.5,37.08 C662.26,34.49 664.11,38.81 666.42,40.99 C669.32,43.73 672.48,46.2 675.31,48.99 C679.06,52.74 683.77,56.14 685.97,60.7 C689.72,68.43 695.71,73 702.63,77.27 C713.55,84.03 720.63,94 724.24,106.27 C725.62,110.93 726.97,114.62 732.04,116.79 C735.39,118.22 737.82,121.79 740.47,124.27 C739.66,125.74 739.47,126.54 739.06,126.74 C735.93,128.13 731.58,127.23 730.39,132.11 C729.08,137.45 732.3,140.71 735.87,142.87 C744.65,148.18 753.76,152.99 762.93,157.61 C768.863515,160.547715 774.963955,163.135477 781.2,165.36 C783.74,166.28 787.94,167.36 789.28,166.09 C796.86,158.98 804.59,162.28 812.43,164.75 C813.98,165.24 815.43,165.94 816.76,166.46 C817.52,177.78 812.15,185.89 804.76,192.74 C805.37,195.17 805.76,197.07 806.32,198.9 C809.74,209.66 812.12,211.36 823.4,211.66 C829.6,211.82 835.6,211.06 841.29,215.73 C848.29,221.51 852.29,227.86 850.29,237.8 C862.19,238.64 867.89,246.39 874.43,254.27 C878.94,259.71 886.98,262.34 893.62,265.87 C897.905568,268.232176 902.414159,270.164908 907.08,271.64 C914.66,273.91 922.43,275.64 930.14,277.41 C932.225304,277.752882 934.32891,277.97326 936.44,278.07 C937.35,285.66 942.74,287.53 949.19,289.42 C957.06,291.72 964.42,295.73 972.01,298.98 C975.55,300.5 978.59,301.58 983.13,300.82 C989.93,299.69 997.24,301.65 1005.47,302.4 C1003.17,313.87 992.62,318.08 989.09,327.72 C996.56,338.43 1010.01,340.05 1020.9,346.24 C1023.9,352.74 1022.4,358.07 1016.73,362.8 C1014.43,364.72 1013.13,367.8 1011.17,370.71 C1017.36,373.2 1022.89,374.42 1027.17,377.42 C1031.63,380.56 1034.88,385.42 1038.45,389.28 C1034.58,398.11 1025.07,402.22 1024.45,412.96 C1027.71,415.96 1031.55,419.14 1035,422.71 C1039.84935,427.800012 1046.35656,430.991559 1053.35,431.71 C1059.57,432.52 1065.62,434.62 1071.77,436.09 C1074.32272,436.821261 1076.93164,437.339702 1079.57,437.64 C1090.96,438.39 1093.5,436.19 1095.09,424.64 C1095.46,422 1096.32,419.36 1096.23,416.75 C1096.08,412.43 1097.99,409.57 1101.73,408.19 C1109.73,405.19 1114.18,399.93 1113.93,391.11 C1113.93,390.24 1114.78,389.34 1115.5,387.95 C1126.98,396.7 1143.39,395.28 1153.5,408.55 L1178.32,394.82 C1171.77,391.82 1166.53,389.5 1161.32,387.08 C1156.79,384.97 1153.92,382.02 1154.09,376.37 C1154.21,372.11 1153,367.81 1152.44,363.52 C1152.05,360.52 1152.87,358.32 1156.99,357.69 L1161.38,369.03 L1163.11,369.15 C1163.85,366.2 1164.59,363.25 1165.66,358.96 L1174.47,364.14 C1181.03,355.61 1191.6,359.94 1200.65,358.05 C1206.12,356.9 1211.93,357.28 1217.31,355.93 C1227.68,353.32 1234.31,357.47 1237.5,370.15 C1239.71,379 1242.62,387.06 1249.5,393.63 C1254.01,397.95 1257.5,403.39 1261.16,408.53 C1265.56028,414.894033 1272.15529,419.409404 1279.68,421.21 C1282.26,421.85 1286.16,421.68 1287.98,420.14 C1296.86,412.62 1305.98,414.58 1315.04,418.82 C1324.67,423.34 1333.84,428.82 1343.45,433.41 C1347.83482,435.602412 1352.57589,436.994255 1357.45,437.52 C1362.45,437.91 1365.63,440 1367.72,444.09 C1370.03785,448.518252 1372.10771,453.071946 1373.92,457.73 C1377.99,468.58 1385.41,475.45 1396.85,477.61 C1403.85,478.93 1409.4,482.31 1415.27,486.46 C1430.27,497.1 1445.42,507.9 1462.27,515.57 C1465.46,517.02 1469.36,517.19 1472.96,517.36 C1483.36,517.84 1491.65,520.75 1495.18,532.04 C1497.63,539.89 1503.49,545.55 1510.12,550.29 C1510.69018,550.63167 1511.22895,551.023202 1511.73,551.46 C1525.01,565.6 1542.53,565.31 1559.8,565.34 C1568.4,565.34 1577,564.44 1585.58,563.68 C1590.58,563.25 1595.46,562.37 1600.37,561.55 C1604.37,560.88 1607.26,562.13 1609.85,565.43 C1613.55568,570.132863 1617.56419,574.588991 1621.85,578.77 C1630.4,587.15 1638.85,587.5 1648.63,580.5 C1653.48,577.02 1658.28,573.33 1663.54,570.57 C1670.46,566.94 1677.7,567.96 1684.63,571.16 C1696.85,576.81 1709.14,578.64 1722.39,574.22 C1726.81,572.75 1732.24,574.13 1737.19,574.48 C1739.48,574.65 1741.88,576.23 1743.98,575.84 C1750.78,574.56 1755.29,577.51 1759.53,582.33 C1761.37102,584.187981 1763.75006,585.419482 1766.33,585.85 C1777.93,587.85 1786.33,594.15 1792.17,604.21 C1792.96,605.56 1793.97,607.15 1795.28,607.77 C1810.84,615.16 1825.66,624.14 1842.97,627.58 C1851.97,629.37 1860.75,632.82 1869.52,635.85 C1876.45,638.25 1882.52,637.67 1887.85,632.31 C1888.95,631.2 1890.71,630.76 1892.11,630.04 C1898.66,634.4 1896.75,640.49 1895.68,645.71 C1898.68,648.33 1901.11,650.54 1903.68,652.62 C1905.21,653.87 1906.98,655.93 1908.55,655.85 C1918.86,655.34 1926.72,663.39 1936.77,663.63 C1938.7,663.63 1941.11,664.04 1942.42,665.23 C1945.98,668.48 1949.54,668.69 1954.08,667.57 C1960.15,666.07 1965.35,667.91 1967.85,674.34 C1972.32,685.81 1981.49,691.01 1992.94,693.04 C1995.57522,693.346618 1998.22714,693.486896 2000.88,693.46 C2002.5,688.9 2003.88,684.87 2005.5,680.4 C2012.19,679.88 2018.81,679.4 2025.41,678.84 C2030.03,678.41 2034.89,678.52 2039.18,677.05 C2045.31,674.95 2049.65,676.75 2053.18,681.37 C2058.42,688.23 2063.33,695.37 2068.48,702.27 C2072.04,707.04 2075.57,711.85 2079.48,716.33 C2086.69,724.58 2094.39,732.42 2101.48,740.78 C2106.41,746.62 2110.63,753.05 2115.48,759.67 C2126.02,759.67 2136.73,760.36 2147.3,759.41 C2153.74,758.84 2160.15,756.21 2166.24,753.71 C2185.02,745.99 2202.88,749.71 2220.11,758.09 C2226.66,761.29 2232.11,766.56 2234.02,774.29 C2235.84,781.46 2242.78,782.83 2248.02,785.98 C2252.78,788.88 2256.02,791.88 2253.18,798.91 C2239.34,798.08 2232.95,807.28 2228.53,820.06 C2236.9176,821.527294 2243.58893,827.914235 2245.42,836.23 C2247.78,845.81 2248.74,855.79 2249.65,865.66 C2249.84,867.74 2247.33,870.22 2245.74,872.27 C2240.11142,879.291367 2235.71564,887.217297 2232.74,895.71 C2230.43,902.56 2230.45,908.61 2235.01,914.49 C2236.59,916.49 2237.58,919.03 2239.08,921.76 L2232.95,926.23 C2234.41,935.39 2235.95,944.82 2237.36,953.96 L2252.72,960.33 C2252.72,964.82 2252.21,968.85 2252.84,972.7 C2253.74,978.18 2254.56,984.01 2257.09,988.79 C2259.93,994.15 2266.47,995.41 2271.9,994.97 C2280.44,994.26 2285.17,998.1 2290.03,1004.43 C2297.3,1013.9 2305.78,1022.43 2313.74,1031.37 C2315.26,1033.08 2316.74,1034.81 2318.27,1036.54 L2313.27,1047.21 C2316.65,1047.21 2319.2,1047.97 2320.87,1047.07 C2326.82,1043.85 2330.3,1046.97 2333.46,1051.26 C2334.64,1052.86 2335.46,1054.73 2336.46,1056.44 C2340.19,1062.63 2344.1,1067.28 2352.96,1066 C2360.6,1064.89 2363.5,1069.37 2362.46,1077.3 C2362.45895,1077.63886 2362.40842,1077.97575 2362.31,1078.3 C2355.18,1092.3 2364.93,1100.37 2373.02,1109.15 C2377.73,1114.25 2383.62,1119.09 2386.13,1125.21 C2390.41,1135.67 2397.72,1140.7 2407.52,1145.3 C2417.13,1149.81 2422.06,1159.84 2423.6,1170.45 C2424.46,1176.45 2425.22,1180.89 2431.78,1183.69 C2434.78,1184.95 2435.78,1190.63 2438.31,1195.42 L2452.83,1192.12 C2462.9,1202.74 2474.16,1213.99 2484.67,1225.9 C2494.81,1237.4 2503.94,1249.78 2518.22,1256.79 C2521.1851,1258.34949 2523.80425,1260.49243 2525.92,1263.09 C2537.66,1277.09 2553.21,1285.21 2569.54,1292.19 C2579.99,1296.65 2588.54,1303.42 2594.23,1313.19 C2597.05,1318 2598.49,1323.6 2600.73,1328.76 C2603.34,1334.76 2606.14,1340.76 2608.87,1346.76 C2610.41,1350.14 2610.37,1354.85 2616.07,1354.68 C2616.88,1354.68 2617.83,1356.52 2618.59,1357.6 C2622.33,1362.93 2626.03,1368.29 2630.44,1374.6 L2601.52,1388.79 L2601.81,1391.41 C2612.51,1394.3 2624.81,1394.87 2633.49,1400.71 C2642.64,1406.84 2654.34,1407.35 2662.61,1414.92 C2660.71,1421.01 2655.95,1422.04 2651.82,1423.87 C2642.95,1427.81 2642.52,1428.65 2643.82,1438.32 C2645.34,1449.32 2648.29,1459.79 2656.18,1468.25 C2664.07,1476.71 2671.08,1478.71 2682.01,1474.53 C2689.94,1471.53 2697.25,1471.14 2704.67,1476.31 C2710.78799,1480.80173 2719.00022,1481.1956 2725.52,1477.31 C2731.28,1474.11 2736.19,1475.37 2739.76,1479.95 C2750.32,1493.52 2763.99,1504.82 2770.19,1521.59 C2773.01,1529.23 2777.47,1535.77 2784.37,1540.38 C2794.66,1547.26 2801.57,1556.93 2806.92,1567.83 C2814.59,1583.42 2821.49,1599.26 2822.19,1617.03 C2822.20296,1619.0329 2822.5199,1621.02223 2823.13,1622.93 C2829.69667,1641.03667 2836.33667,1659.12333 2843.05,1677.19 C2843.74,1679.06 2844.97,1680.76 2845.49,1682.66 C2849.49,1697.1 2856.81,1709.58 2866.75,1720.66 C2868.51787,1722.66151 2869.95892,1724.92938 2871.02,1727.38 C2873.67,1733.38 2872.02,1739.07 2866.97,1743.21 C2864.06322,1745.41427 2861.29777,1747.79897 2858.69,1750.35 C2845.79,1763.82 2844.25,1778.76 2852.64,1795.28 C2854.64,1799.28 2856.37,1804.17 2856.17,1808.55 C2855.56,1821.48 2853.75,1834.34 2852.77,1847.26 C2852.42,1851.92 2850.28,1854.64 2846.19,1856.26 C2828.88,1863.02 2811.61,1869.9 2794.19,1876.41 C2791.05,1877.58 2788.97,1878.77 2788.33,1882.2 C2786.88401,1890.48391 2782.71772,1898.04938 2776.49,1903.7 C2775.68882,1904.30624 2775.0527,1905.10397 2774.64,1906.02 C2770.34,1920.92 2757.14,1925.47 2744.93,1930.02 C2734.48,1933.89 2723.03,1935.09 2712.07,1937.63 C2709.33826,1938.34249 2706.68496,1939.32743 2704.15,1940.57 C2699.66,1942.64 2695.46,1945.57 2690.79,1947 C2682.87,1949.43 2674.79,1951.73 2666.56,1952.62 C2661.98,1953.12 2656.71,1951.47 2652.4,1949.4 C2639.86,1943.4 2627.74,1936.49 2615.23,1930.4 C2612.47,1929.06 2608.76,1929.18 2605.53,1929.4 C2592.41,1930.16 2580.07,1927.84 2568.53,1921.26 C2566.79073,1920.24442 2564.8035,1919.73203 2562.79,1919.78 C2552.48,1920.42 2544.23,1915.15 2535.79,1910.6 C2525.79,1905.23 2515.68,1900.09 2506.22,1893.93 C2499.95,1889.85 2494.76,1884.12 2489.04,1879.18 C2487.08925,1877.46405 2485.03902,1875.86461 2482.9,1874.39 C2480.16,1872.55 2477.14,1871.12 2474.49,1869.17 C2470.49,1866.17 2466.99,1863.52 2461.08,1864.6 C2457.93,1865.18 2453.62,1862.27 2450.6,1859.95 C2446.41,1856.73 2442.92,1852.59 2439.17,1848.81 C2429.59,1839.17 2420.03,1829.50333 2410.49,1819.81 C2409.33,1818.64 2407.55,1817.56 2407.24,1816.18 C2404.67,1804.75 2394.74,1801.74 2385.9,1798.93 C2371.28761,1794.44442 2356.44242,1790.75566 2341.43,1787.88 C2333.73,1786.32 2325.62,1786.81 2317.71,1786.19 C2313.77,1785.88 2309.35,1786.19 2306.02,1784.44 C2293.7,1778.13 2279.82,1774.6 2270.02,1763.66 C2267.08,1760.39 2262.14,1758.92 2258.11,1756.66 C2250.94,1752.56 2243.87,1748.27 2236.55,1744.46 C2233.54095,1743.0462 2230.33422,1742.09868 2227.04,1741.65 C2219.55,1740.36 2212.04,1739.4 2203.75,1738.2 L2197.92,1745.76 C2194.75,1745.49 2191.36,1745.63 2188.2,1744.83 C2181.75361,1743.31469 2175.11737,1742.76869 2168.51,1743.21 C2162.05,1743.49 2155.51,1741.16 2148.95,1740 C2146.68,1739.6 2144.11,1738.47 2142.15,1739.11 C2134.05,1741.78 2126.36,1739.87 2118.53,1738.11 C2116.33,1737.61 2112.65,1736.97 2111.85,1738.04 C2105.21,1746.85 2093.55,1739.89 2086.27,1746.52 C2085.27,1747.52 2082.4,1746.8 2080.49,1746.42 C2074.94,1745.32 2069.39,1744.17 2063.94,1742.71 C2056.38,1740.71 2049.94,1740.5 2044.61,1748.04 C2040.34,1754.04 2033.91,1754.91 2026.69,1752.04 C2022.19,1750.27 2017.08,1750.04 2012.22,1749.24 C2009.28,1748.78 2006.27,1748.79 2003.33,1748.35 C1996.61,1747.35 1990.23,1743.85 1983,1746.88 C1981,1747.69 1977.76,1746.19 1975.42,1745.05 C1966.28,1740.64 1956.72,1741.17 1947.02,1741.75 C1941.77,1742.06 1936.17,1742.56 1931.27,1741.12 C1922.51,1738.55 1914.16,1739.67 1905.64,1741.37 C1888.74,1744.73 1871.77,1747.81 1854.96,1751.58 C1844.69,1753.88 1834.61,1757.1 1824.54,1760.23 C1821.99374,1761.06081 1819.71303,1762.55138 1817.93,1764.55 C1813.1,1770.15 1806.51,1772.17 1800.03,1774.82 C1792.9641,1777.63621 1786.15533,1781.05899 1779.68,1785.05 C1771.68,1790.05 1763.94,1790.15 1756.26,1785.29 C1749.72495,1781.23581 1742.30125,1778.83332 1734.63,1778.29 C1728.28,1777.73 1722.63,1775.41 1716.69,1773.13 C1709.48,1770.37 1701.17,1770.41 1693.32,1769.35 C1686.45,1768.43 1679.58,1767.53 1672.68,1766.85 C1665.78,1766.17 1658.68,1764.58 1652.02,1765.54 C1637.58,1767.61 1623.3,1770.85 1609.02,1774.04 C1601.31,1775.76 1593.74,1776.1 1586.48,1773.1 C1582.84624,1771.6784 1579.62047,1769.38017 1577.09,1766.41 C1569.55,1756.78 1560.51,1751.22 1547.87,1753.14 C1544.58,1753.63 1541.25,1753.88 1538,1754.56 C1522.53,1757.81 1507.67,1755.39 1492.83,1750.62 C1484.28564,1747.90635 1475.55165,1745.83065 1466.7,1744.41 C1449.9,1741.64 1434.46,1736.41 1422.08,1723.99 C1420.08,1721.99 1417.02,1720.99 1414.29,1720.06 C1410.95,1718.87 1407.21,1719.06 1405.13,1714.98 C1404.34,1713.42 1401.26,1712.98 1399.19,1712.13 C1394,1709.97 1388.61,1708.19 1383.64,1705.62 C1379.07,1703.26 1375.84,1699.05 1369.57,1699.26 C1364.77,1699.43 1360.29,1693.5 1361.27,1688.76 C1363.75,1676.83 1356.73,1671.83 1347.66,1667.76 C1345.8,1666.94 1344.17,1665.8 1341.81,1664.43 Z" id="Shape" fill="#FFFFFF"></path>
                <rect id="Rectangle-path" x="0" y="0" width="2903.57" height="1985.81"></rect>
            </g>
            <path d="M900.46,330.41 C908.93,333.41 918.34,334.55 924.61,342.29 C925.11,342.9 928.13,342.23 929.41,341.29 C938.41,334.96 948.61,338.38 957.41,339.94 C970.14,342.22 982.35,345.94 995.56,343.66 C997.87,343.27 1000.84,346.71 1003.56,348.37 C1001.89,350.37 1000.56,353.02 998.49,354.25 C991.68,358.25 984.49,361.57 977.6,365.44 C974.71,367.05 972.23,369.37 969.6,371.37 C971.93,374.37 973.78,379.25 976.7,380 C983.86,381.86 991.7,384.06 998.61,378.38 C999.53,377.62 1000.85,376.26 1001.56,376.49 C1009.29,378.97 1017.94,380.28 1024.31,384.78 C1030.47,389.12 1022.19,395.45 1020.24,396.88 C1008.91,405.15 1007.4,418.39 1001.62,429.38 C1001.48,429.64 1001.62,430.04 1001.62,430.38 C1001.09,433.92 1018.02,450.03 1021.62,449.38 C1024.96,448.77 1028.33,448.22 1031.62,447.38 C1039.39,445.33 1045.4,445.33 1048.02,455.31 C1048.89,458.62 1053.94,461.7 1057.74,463.13 C1061.19,464.42 1065.74,464.13 1063.87,457.34 C1063.15,454.81 1061.28,449.54 1067.63,449.42 C1071.3,449.36 1075.36,448.42 1078.54,449.64 C1083.8,451.71 1094.88,470.51 1097.94,476.25 C1100.83,481.68 1105.74,486.51 1110.79,490.19 C1115.42,493.55 1117.04,491.65 1116.79,485.41 C1116.71,483.41 1118.2,480.95 1119.74,479.55 C1121.28,478.15 1125.25,478.3 1125.38,477.38 C1127.62,460.8 1143.31,464.86 1152.77,459.68 C1155.84,457.99 1160.63,459.6 1164.62,459.38 C1174.62,458.82 1184.62,457.84 1194.62,457.57 C1197.26,457.5 1200.17,459.06 1202.56,460.51 C1205.15,462.08 1207.15,464.61 1209.64,466.38 C1219.51,473.38 1223.92,471.79 1227.71,460.44 C1228.44,458.24 1230.29,456.44 1231.62,454.44 C1232.95,456.44 1234.7,458.28 1235.55,460.44 C1239.91,471.69 1245.1,482.52 1244.34,495.44 C1244.16,498.49 1252.63,502.7 1257.69,505.25 C1265.41,509.15 1273.77,511.77 1281.52,515.6 C1283.52,516.6 1285.07,519.93 1285.52,522.42 C1288.43,539.42 1291.65,556.34 1293.32,573.42 C1293.83329,580.587337 1292.45388,587.763706 1289.32,594.23 C1285.67,601.78 1283.56,609.11 1283.6,617.39 C1283.6,629.39 1274.47,641.39 1262.66,645.39 C1255.78,647.7 1253.39,654.27 1256.66,662.39 C1261.32,673.9 1265.66,685.31 1273.3,695.65 C1282.13,707.65 1285.08,722.11 1283.81,737.42 C1282.94,747.84 1285.21,757.79 1294.65,764.42 C1301.93,769.51 1309.31,774.42 1316.65,779.42 C1317.65,780.1 1319.49,780.71 1319.53,781.42 C1320.44,798.96 1332.63,814.96 1326.64,833.42 C1326.08,835.12 1325.77,837.25 1324.58,838.34 C1317.04,845.25 1317.77,853.55 1319.58,862.44 C1320.68318,868.719752 1321.35143,875.068183 1321.58,881.44 C1321.86,886.37 1321.04,889.82 1316.21,894.07 C1311.07,898.58 1308.65,907.95 1307.98,915.46 C1306.43,932.94 1299.3,947.16 1285.45,957.15 C1278.53,962.15 1274.65,967.15 1275.8,975.41 C1276.15,977.88 1278.94,979.96 1279.52,982.46 C1280.64,987.36 1283.14,993.53 1281.25,997.23 C1275.06,1009.4 1278.6,1021.38 1279.9,1033.4 C1280.14,1035.6 1283.3,1038.19 1285.71,1039.3 C1294.71,1043.43 1299.25,1051.19 1303.8,1059.3 C1306.67,1064.47 1304.56,1066.43 1300.8,1069.51 C1291.8,1076.78 1283.37,1084.72 1274.7,1092.38" id="Shape" stroke="#000000" stroke-width="5" stroke-linecap="round" stroke-linejoin="round"></path>
            <path d="M218.46,137.41 C222.46,134.41 226.28,131.13 230.52,128.5 C233.91,126.39 237.82,125.14 241.45,123.4 C245.45,121.46 249.86,119.94 253.37,117.29 C259.23,112.88 263.21,109.41 271.89,114.7 C277.98,118.4 288.17,115.92 296.45,115.29 C307.16,114.47 317.81,112.86 328.45,111.29 C330.672446,110.816137 332.737442,109.783639 334.45,108.29 C341.59,102.61 348.92,102.09 357.55,105.16 C369.033334,109.104469 380.716129,112.44241 392.55,115.16 C398.69,116.64 405.17,116.87 411.55,117.23 C417.2,117.56 423.12,116.23 428.55,117.51 C440.81,120.33 452.65,121.93 464.66,116.43 C468.66,114.62 473.22,113.94 477.66,113.37 C494.9,111.13 500.51,115.37 503.66,132.29 C503.955418,134.395177 504.633228,136.428607 505.66,138.29 C509.84,145.05 514.66,151.47 518.51,158.38 C522.92,166.23 528.8,163.57 534.58,161.28 C543.66,157.67 546.52,152.66 545.69,144.28 C545.2,139.28 546.17,134.21 545.47,129.28 C544.34,121.35 548.68,120.91 554.6,121.19 C559.86,121.44 566.49,122.74 563.81,113.19 C563.56,112.3 566.41,109.33 567.58,109.46 C574.75,110.26 579.93,107.27 584.73,102.38 C585.87,101.21 588.6,101.33 590.6,101.3 C597.93,101.18 605.27,101.2 612.6,101.3 C613.94,101.3 615.88,101.47 616.51,102.3 C627.25,116.83 644.79,118.48 659.62,125.18 C667.36,128.67 670.62,137.47 664.39,141.93 C655.39,148.3 649.74,158.93 637.7,161.67 C634.37,162.44 631.63,168.27 629.76,172.31 C627.35,177.51 632.49,179.11 635.63,181.19 C647.08,188.79 640.47,199.32 639.24,208.19 C637.62,219.89 634.36,221.19 617.6,223.19 C607.76,224.38 604.92,229.63 609.6,238.19 C610.6,240.03 612.49,241.39 613.5,243.24 C619.92,254.95 619,258.78 607.5,265.16 C593.95,272.7 580.25,279.99 566.5,287.16 C557.06,292.1 546.71,291.65 536.5,291.08 C530.86,290.77 528.85,292.56 529.41,298.2 C530.07,304.83 529.93,311.55 530.53,318.2 C532.31,337.71 546.98,346.38 562.68,350.49 C572.89,353.16 582.52,355.85 590.34,362.39 C599.24,369.83 610.08,365.39 619.55,369.03 C630.27,373.1 641.46,375.98 652.55,379.15 C657.143719,380.464389 661.821053,381.466675 666.55,382.15 C681.47,384.3 687.81,398.65 699.55,405.09 C707.91,409.66 716.79,413.29 725.55,417.09 C727.156287,417.605718 728.883713,417.605718 730.49,417.09 C747.22,412.5 760.23,417.63 768.49,432.14 C779.21,450.9 794.3,465.09 815.56,469.76 C829.45,472.76 844.46,474.45 858.4,472.55 C875.14,470.26 887.13,477.94 893.83,491.97 C898.7,502.17 906.65,510.97 913.64,519.97 C914.83,521.51 918.64,522.61 920.39,521.88 C926.49,519.29 931.96,517.45 937.7,522.88 C938.43,523.57 942.15,521.12 944.48,520.11 C949.82,517.78 955.13,515.41 960.48,513.11 C966.26,510.65 972.48,509.11 973.59,501.11 C974.319491,494.558073 978.002459,488.69847 983.59,485.2 C994.66,478.42 1001.15,465.4 1015.42,462.59 C1017.78,462.13 1018.85,455.09 1020.52,451.09" id="Shape" stroke="#000000" stroke-width="5" stroke-linecap="round" stroke-linejoin="round"></path>
            <path d="M1757.46,856.41 C1754.79,858.75 1752.06,861.01 1749.46,863.41 C1745.6,867.03 1742.32,871.2 1746.55,876.3 C1749.13,879.4 1760.92,877.82 1763.38,874.3 C1765.41256,871.518389 1767.09206,868.495287 1768.38,865.3 C1777.32,841.76 1796.64,833.6 1819.38,829.04 C1831.48,826.61 1845.98,825.68 1851.28,811.26 C1857.81,793.47 1872.17,793.57 1886.39,795.68 C1896.33,797.16 1905.96,801.54 1915.39,805.45 C1923.9,808.98 1926.63,817.27 1929.49,825.3 C1935.97,843.57 1946.65,857.74 1966.4,863.45 C1973.52,865.51 1973.81,872.24 1973.4,878.32 C1972.62,889.03 1973.6,899.01 1981.4,907.43 C1982.86,909.02 1983.28,911.96 1983.4,914.33 C1984.22,926.98 1983.61,939.87 1985.85,952.25 C1987.61,961.93 1993.12,970.88 1996.38,980.35 C1999.88,990.46 2001.03,1000.62 1997.87,1011.44 C1996.72,1015.38 1999.48,1020.98 2001.6,1025.26 C2006.52,1035.13 2012.05,1044.7 2017.49,1054.31 C2022.93,1063.92 2029.14,1072.17 2039.38,1077.5 C2053.38,1084.8 2066.81,1093.31 2080.47,1101.33 C2089.62,1106.7 2093.97,1114.92 2093.39,1125.33 C2092.31,1144.74 2104.21,1158.19 2114.7,1172.16 C2116.38,1174.4 2121.08,1174.9 2124.48,1175.23 C2134.48,1176.23 2144.81,1175.23 2154.4,1177.62 C2175.14,1182.7 2183.82,1200.78 2193.27,1217.45 C2194.11,1218.93 2192.36,1222.09 2191.43,1224.32 C2187.04,1234.84 2189.78,1240.45 2200.43,1245.47 C2208.08416,1249.20047 2215.42175,1253.54818 2222.37,1258.47 C2224.52,1259.95 2226.88,1264.21 2226.2,1266.18 C2223.25,1274.74 2228.63,1281.18 2233.72,1283.87 C2256.1,1295.72 2269.48,1316.22 2285.64,1334.15 C2291.71363,1341.10534 2298.79165,1347.11491 2306.64,1351.98 C2314.27,1356.5 2321.78,1361.13 2332.53,1359.98 C2343.53,1358.74 2355.22,1362.19 2366.42,1364.5 C2373.49,1365.97 2383.6,1363.92 2388.42,1358.33 C2395.75,1349.91 2401.52,1348.2 2412.02,1355.88 C2416.13,1358.88 2417.88,1368.33 2416.94,1374.26 C2415.38,1384.2 2411.74,1393.54 2400.61,1398.73 C2392.7,1402.42 2393.23,1408.79 2400.48,1414.25 C2408.65,1420.39 2412.17,1429.25 2412.95,1438.37 C2413.45,1444.16 2410.27,1450.83 2407.15,1456.17 C2404.66,1460.43 2404.64,1463.78 2405.15,1468.36 C2405.74,1473.9 2404.21,1479.68 2403.42,1485.36 C2402.54,1491.71 2403.42,1499.54 2399.97,1503.99 C2395.46,1509.82 2393.59,1515.74 2392.56,1522.38 C2392.32852,1524.75545 2392.65379,1527.15216 2393.51,1529.38 C2398.72,1544.84 2401.32,1559.38 2390.91,1574.71 C2385.32,1582.96 2384.45,1594.4 2381.45,1604.4 C2380.45,1607.74 2379.9,1611.29 2378.36,1614.4 C2374.36,1622.4 2380.18,1628.08 2383.95,1633.06 C2385.65,1635.31 2393.79,1635.14 2397.24,1633.06 C2404.54,1628.75 2407.06,1628.06 2412.02,1637.06 C2419.1,1650 2434.02,1654.96 2447.62,1658.75 C2452.89,1660.22 2460.62,1655.58 2466.26,1652.06 C2469.95,1649.73 2470.97,1650.51 2474.63,1651.92 C2481.34,1654.51 2489.1,1654.51 2496.46,1655.31 C2499.78981,1655.51046 2503.12803,1655.53049 2506.46,1655.37" id="Shape" stroke="#000000" stroke-width="5" stroke-linecap="round" stroke-linejoin="round"></path>
            <path d="M1760.46,856.41 C1759.79,855.41 1759.36,853.93 1758.46,853.49 C1749.81,849.38 1751.37,841.49 1751.6,834.42 C1751.76,829.5 1749.18,829.12 1745.5,829.42 C1736.17,830.12 1726.8,830.5 1717.5,831.69 C1715.94,831.89 1713.65,835.45 1713.68,837.43 C1713.78,843.77 1714.9,850.09 1715.43,856.43 C1715.68,859.43 1716.74,863.53 1715.26,865.24 C1707.38,874.3 1698.97,882.93 1690.26,891.24 C1688.71,892.73 1684.49,893.24 1682.52,892.24 C1670.04,885.81 1659.35,891.37 1649.52,897.63 C1635.02537,906.897563 1621.03549,916.931823 1607.61,927.69 C1602.97,931.4 1599.3,937.69 1597.67,943.51 C1593.14,959.67 1582.04,970.04 1568.28,977.21 C1545.78,988.92 1525.71,1005.09 1501.43,1013.51 C1498.23,1014.62 1495.31,1016.62 1492.43,1018.51 C1490.88,1019.51 1489.8,1021.21 1488.43,1022.43 C1484.75,1025.6 1494.43,1032.48 1486.43,1033.01 C1480.16,1033.42 1478.01,1037.01 1474.3,1040.27 C1470.59,1043.53 1464.97,1044.27 1461.68,1047.67 C1458.05,1051.39 1454.52,1056.56 1453.83,1061.5 C1452.73,1069.4 1447.89,1070.38 1442.5,1069.27 C1429.74,1066.65 1422.17,1073.58 1413.15,1081.08 C1400.24,1091.83 1387.95,1105.08 1369.45,1106.37 C1358.15,1107.17 1346.79,1107.49 1335.45,1107.37 C1320.80288,1107.03391 1306.31231,1110.44143 1293.35,1117.27 C1286.76,1120.74 1286.11,1123.45 1279.45,1117.46" id="Shape" stroke="#000000" stroke-width="5" stroke-linecap="round" stroke-linejoin="round"></path>
            <path d="M958.46,310.41 C955.94,303.36 949.86,301.15 943.46,299.41 C933.46,296.71 923.08,294.99 913.58,291.1 C906.3,288.1 900.13,283.64 893.46,291.4 C892.13,290.07 889.94,288.93 889.59,287.4 C885.82,270.62 883.59,269.66 867.4,277.31 C864.82,278.53 859.7,279.39 858.81,278.17 C856.71,275.31 855.06,270.83 855.71,267.48 C858.11,254.98 852.97,249.23 840.45,251.37 C837.86,251.81 835.13,251.43 832.45,251.43 C832.78,248.43 833.05,245.43 833.45,242.43 C834.05,238.09 835.99,233.51 835.16,229.49 C833.63,222.03 826.82,220.06 819.4,223.37 C809.17,227.94 798.88,232.42 788.4,236.37 C774.56,241.57 770.7,242.95 764.4,224.45" id="Shape" stroke="#000000" stroke-width="5" stroke-linecap="round" stroke-linejoin="round"></path>
            <path d="M2652.12,1463.27 C2649.12,1468.27 2642.66,1481.4 2638.25,1484.06 C2620.73,1494.65 2616.73,1515.53 2602.72,1528.69 C2600.21,1531.06 2600.15,1537.19 2600.65,1541.39 C2602,1552.72 2598.47,1561.46 2589.49,1568.45 C2570.84,1582.98 2558.03,1602.53 2544.49,1621.45 C2539.25,1628.76 2533.19,1634.86 2523.49,1635.45 C2520.83,1635.6 2518.15,1635.38 2515.49,1635.45 C2508.49,1635.73 2501.25,1635.09 2494.56,1636.71 C2487.64,1638.38 2487.85,1640.35 2493.45,1645.48 C2495.92505,1648.01926 2498.26175,1650.68979 2500.45,1653.48" id="Shape" stroke="#000000" stroke-width="5" stroke-linecap="round" stroke-linejoin="round"></path>
            <path d="M100.46,82.41 C103.13,85.41 106.2,88.15 108.39,91.41 C115.39,101.96 125.9,104.62 137.46,105.35 C138.78878,105.50584 140.13122,105.50584 141.46,105.35 C166.18,101.01 179,114.52 187.59,135.35 C192.22,146.57 202.82,150.35 213.37,145.19 C215.1,144.34 215.47,140.74 216.47,138.4" id="Shape" stroke="#000000" stroke-width="5" stroke-linecap="round" stroke-linejoin="round"></path>
            <path d="M668.46,138.41 C674.187712,140.825508 680.529277,141.381663 686.59,140 C693.68,138.54 702.51,140.56 709.27,143.79 C716.51,147.25 727.03,148.66 727.72,160.37 C727.78,161.48 731.51,163.32 733.45,163.22 C740.96,162.83 747.17,164.4 752.61,170.22 C756.88,174.81 762.88,176 769.47,175.57 C774.74,175.22 780.13,176.7 785.47,177.36" id="Shape" stroke="#000000" stroke-width="5" stroke-linecap="round" stroke-linejoin="round"></path>
            <path d="M794.46,179.41 C786.03,178.48 781.24,185.66 774.55,188.61 C774.21,188.75 774.55,192.32 775.55,193.33 C790.42,208.28 789.15,213.46 768.48,221.46 C767.67,221.77 767.13,222.75 766.48,223.41" id="Shape" stroke="#000000" stroke-width="5" stroke-linecap="round" stroke-linejoin="round"></path>
            <path d="M964.46,311.41 C963.79,311.08 962.92,310.29 962.46,310.48 C950.66,315.73 938.02,316.13 925.46,317.95 C918.36,318.95 912.05,325.41 905.38,329.41" id="Shape" stroke="#000000" stroke-width="5" stroke-linecap="round" stroke-linejoin="round"></path>
            <path d="M1274.46,1092.41 C1282.04,1091.88 1285.63,1096.41 1286.01,1104.41 C1286.21,1108.63 1281.79,1113.06 1279.46,1117.41" id="Shape" stroke="#000000" stroke-width="5" stroke-linecap="round" stroke-linejoin="round"></path>
            <rect id="Rectangle-path" x="0" y="0" width="2903.57" height="1985.81"></rect>
        </g>
    </g>
</svg>